#define cal.icon_width 64
#define cal.icon_height 64
static char cal.icon_bits[] = {
   0x00, 0x00, 0x00, 0x00, 0x00, 0x00, 0x00, 0x00, 0x00, 0x00, 0x00, 0x00,
   0x00, 0x00, 0x00, 0x00, 0x00, 0x00, 0x00, 0x00, 0x00, 0x00, 0x00, 0x00,
   0x00, 0x00, 0x00, 0x00, 0x00, 0x00, 0x00, 0x00, 0x00, 0x00, 0x00, 0x00,
   0x00, 0x00, 0x00, 0x00, 0x00, 0x00, 0x00, 0xc0, 0x0f, 0x00, 0x00, 0x00,
   0x00, 0x00, 0x00, 0xe0, 0x1f, 0x00, 0x00, 0x00, 0x00, 0x00, 0x00, 0x30,
   0x30, 0x00, 0x00, 0x00, 0x00, 0x00, 0x00, 0x18, 0x60, 0x00, 0x00, 0x00,
   0xc0, 0xff, 0xff, 0x6d, 0xd8, 0xfe, 0xff, 0x3f, 0xe0, 0xff, 0xff, 0xed,
   0xdc, 0xfe, 0xff, 0x3f, 0xf0, 0xff, 0xff, 0xed, 0xdc, 0xfe, 0xff, 0x3f,
   0x10, 0x00, 0x00, 0x8c, 0xc4, 0x00, 0x00, 0x38, 0x10, 0x00, 0x00, 0x8c,
   0xc4, 0x00, 0x00, 0x38, 0x10, 0x00, 0x00, 0x8c, 0xc4, 0x00, 0x00, 0x38,
   0x10, 0x00, 0x00, 0x8c, 0xc4, 0x00, 0x00, 0x38, 0x10, 0x00, 0x00, 0x8c,
   0xc4, 0x00, 0x00, 0x38, 0x10, 0x00, 0x00, 0x8c, 0xc4, 0x00, 0x00, 0x38,
   0x10, 0x00, 0x00, 0x9e, 0xe4, 0x01, 0x00, 0x38, 0x10, 0x00, 0x00, 0x9e,
   0xe4, 0x01, 0x00, 0x38, 0x10, 0x00, 0x00, 0x9e, 0xe4, 0x01, 0x00, 0x38,
   0x10, 0xfe, 0x3f, 0x8c, 0xc4, 0xf0, 0xff, 0x38, 0x10, 0x00, 0x00, 0x80,
   0x04, 0x00, 0x00, 0x38, 0x10, 0x00, 0x00, 0x80, 0x04, 0x00, 0x00, 0x38,
   0x10, 0xfe, 0x3f, 0x80, 0x04, 0xf0, 0xff, 0x38, 0x10, 0x00, 0x00, 0x80,
   0x04, 0x00, 0x00, 0x38, 0x10, 0x00, 0x00, 0x80, 0x04, 0x00, 0x00, 0x38,
   0x10, 0xfe, 0x3f, 0x80, 0x04, 0xf0, 0xff, 0x38, 0x10, 0x00, 0x00, 0x80,
   0x04, 0x00, 0x00, 0x38, 0x10, 0x00, 0x00, 0x00, 0x00, 0x00, 0x00, 0x38,
   0x10, 0xfe, 0x3f, 0xc0, 0x0f, 0xf0, 0xff, 0x38, 0x10, 0x00, 0x00, 0xe0,
   0x1f, 0x00, 0x00, 0x38, 0x10, 0x00, 0x00, 0x30, 0x30, 0x00, 0x00, 0x38,
   0x10, 0xfe, 0x3f, 0x98, 0x64, 0xf0, 0xff, 0x38, 0x10, 0x00, 0x00, 0x8c,
   0xc4, 0x00, 0x00, 0x38, 0x10, 0x00, 0x00, 0x8c, 0xc4, 0x00, 0x00, 0x38,
   0x10, 0xfe, 0x3f, 0x8c, 0xc4, 0xf0, 0xff, 0x38, 0x10, 0x00, 0x00, 0x8c,
   0xc4, 0x00, 0x00, 0x38, 0x10, 0x00, 0x00, 0x8c, 0xc4, 0x00, 0x00, 0x38,
   0x10, 0xfe, 0x3f, 0x8c, 0xc4, 0xf0, 0xff, 0x38, 0x10, 0x00, 0x00, 0x8c,
   0xc4, 0x00, 0x00, 0x38, 0x10, 0x00, 0x00, 0x8c, 0xc4, 0x00, 0x00, 0x38,
   0x10, 0xfe, 0x3f, 0x8c, 0xc4, 0xf0, 0xff, 0x38, 0x10, 0x00, 0x00, 0x9e,
   0xe4, 0x01, 0x00, 0x38, 0x10, 0x00, 0x00, 0x9e, 0xe4, 0x01, 0x00, 0x38,
   0x10, 0x00, 0x00, 0x9e, 0xe4, 0x01, 0x00, 0x38, 0x10, 0x00, 0x00, 0x8c,
   0xc4, 0x00, 0x00, 0x38, 0x10, 0x00, 0x00, 0x80, 0x04, 0x00, 0x00, 0x38,
   0x10, 0x00, 0x00, 0x80, 0x04, 0x00, 0x00, 0x38, 0x10, 0x00, 0x00, 0x80,
   0x04, 0x00, 0x00, 0x38, 0x10, 0x00, 0x00, 0x80, 0x04, 0x00, 0x00, 0x38,
   0x10, 0x00, 0x00, 0x80, 0x04, 0x00, 0x00, 0x38, 0x10, 0x00, 0x00, 0x80,
   0x04, 0x00, 0x00, 0x38, 0x10, 0x00, 0x00, 0x80, 0x04, 0x00, 0x00, 0x38,
   0x10, 0x00, 0x00, 0x80, 0x04, 0x00, 0x00, 0x38, 0x10, 0x00, 0x00, 0x80,
   0x04, 0x00, 0x00, 0x38, 0x10, 0x00, 0x00, 0x80, 0x04, 0x00, 0x00, 0x18,
   0xf0, 0xff, 0xff, 0xff, 0xfc, 0xff, 0xff, 0x0f, 0x00, 0x00, 0x00, 0x00,
   0x00, 0x00, 0x00, 0x00, 0x00, 0x00, 0x00, 0x00, 0x00, 0x00, 0x00, 0x00,
   0x00, 0x00, 0x00, 0x00, 0x00, 0x00, 0x00, 0x00, 0x00, 0x00, 0x00, 0x00,
   0x00, 0x00, 0x00, 0x00, 0x00, 0x00, 0x00, 0x00, 0x00, 0x00, 0x00, 0x00,
   0x00, 0x00, 0x00, 0x00, 0x00, 0x00, 0x00, 0x00};
