/* XPM */
static char *2427457[] =
{
/* width height ncolors chars_per_pixel */
"64 64 6 1",
/* colors */
"A c None",
"B c #CCCCCCCCCCCC",
"C c #FFFF33330000",
"D c #0000CCCC0000",
"E c #EEEEEEEEEEEE",
"F c #000000000000",
/* pixels */
"AAAAAAAAAAAAAAAAAAAAAAAAAAAAAAAAAAAAAAAAAAAAAAAAAAAAAAAAAAAAAAAA",
"AAAAAAAAAAAAAAAAAAAAAAAAAAAAAAAAAAAAAAAAAAAAAAAAAAAAAAAAAAAAAAAA",
"AAAAAAAAAAAAAAAAAAAAAAAAAABBBBBBBBBBBBBBBBBBBBBBBBBBBAAAAAAAAAAA",
"AAAAAAAAAAAAAAAAAAAAAAAAABBBBBBBBBBBBBBBBBBBBBBBBBBBBBAAAAAAAAAA",
"AAAAAAAAAAAAAAAAAAAAAAAABBBBBBBBBBBBBBBBBBBBBBBBBBBBBBBAAAAAAAAA",
"ACCCCCCCCCCAAAAAAAAAAAAABBBCCCFFFFFFFFFFFFFFFFFFFFBBBBBBAAAAAAAA",
"AACCCCCCCCCCAAAAAAAAAAAABBCCCFFFFFFFFFFFFFFFFFFFFFFBBBBBBAAAAAAA",
"AAACCCCCCCCCCAAAAAAAAAAABCCCFDDFDFFDFDDDDFFDFFFFFFFBBBBBBAAAAAAA",
"AAAACCCCCCCCCCAAAAAAAAAACCCFFFFFFFFFFFFFFFFFFFFFFFFBBBBBBBAAAAAA",
"AAAAACCCCCCCCCCAAAAAAAACCCBFFDDDDFDDFDDDFFFFFFFFFFFBBBBBBBAAAAAA",
"AAAAAACCCCCCCCCCAAAAAACCCBBFFFFFFFFFFFFFFFFFFFFFFFFBBBBBBBBAAAAA",
"AAAAAAACCCCCCCCCCAAAACCCBBBFFDDDDDDDDDDFDDDDDFFFFFFBBBBBBBBAAAAA",
"AAAAAAAACCCCCCCCCCAACCCABBBFFFFFFFFFFFFFFFFFFFFFFFFBBBBBBBBAAAAA",
"AAAAAAAAACCCCCCCCCACCCAABBBFFDDDFDDDDFDDFFDDDFFFFFFBBBBBBBBAAAAA",
"AAAAAAAAAACCCCCCCACCCAAABBBFFFFFFFFFFFFFFFFFFFFFFFFBBBBBBBBAAAAA",
"AAAAAAAAAAACCCCCACCCCAAABBBFFDFFFFFFFFFFFFFFFFFFFFFBBBBBBBBAAAAA",
"AAAAAAAAAAAACCCACCCCCCAABBBFFFFFFFFFFFFFFFFFFFFFFFFBBBBBBBBAAAAA",
"AAAAAAAAAAACCCACCCCCCCCABBBFFDDDDFDFDDDFDFFFFFFFFFFBBBBBBBBAAAAA",
"AAAAAAAAAACCCACCCCCCCCCCBBBFFFFFFFFFFFFFFFFFFFFFFFFBBBBBBBBAAAAA",
"AAAAAAAAACCCAAACCCCCCCCCCBBFFDFDDDDFFFFFFFFFFFFFFFFBBBBBBBBAAAAA",
"AAAAAAAACCCAAAAACCCCCCCCCCBBFFFFFFFFFFFFFFFFFFFFFFBBBBBBBBAAAAAA",
"AAAAAAACCCAAAAAAACCCCCCCCCCBBBBBBBBBBBBBBBBBBBBBBBBBBBBBBAAAAAAA",
"AAAAAACCCAAAAAAAAACCCCCCCCCCBBBBBBBBBBBBBBBBBBBBBBBBBBBBAAAAAAAA",
"AAAAACCCAAAAAAAAAAACCCCCCCCCCBBBBBBBBBBBBBBBBBBBBBBBBBBBAAAAAAAA",
"AAAACCCAAAAAAAAAAAAACCCCCCCCCCBBBBBBBBBBBBBBBBBBBBBBBBBBAAAAAAAA",
"AAACCCAAAAAAAAAAAAAAACCCCCCCCCCBBBBBBBBBBBBBBBBBBBBBBBBBAAAAAAAA",
"AACCCAAAAAAAAAAAAAAAAACCCCCCCCCCBBBBBBBBBBBBBBBBBBBBBBBBBBBBABBA",
"ACCCAAAAAAAAAAAAAAAAAAAAAAAAAAAAAAAAAAAAAAAAAAAAAAAAAAAAAAAABAAB",
"AAAAAAAAAAAAAAAAAAAAAAAABBBBBBBBBBBBBBBBBBBBBBBBBBBBBBBBBAAAAABA",
"AAAAAAAAAAAAAAAAAAAAAAABBBBBBBBBBBBBBBBBBBBBBBBBBBBBBBBAAAAAABAA",
"AAAAAAAAAAAAAAAAAAAAAABBBBBBBBBBBBBBBBBBBBBBBBBBBBBAAAAAABBBBBBA",
"AAAAAAAAAAAAAAAAAAAAAABBBEEEEEEEEEEEEEEEEEEEBBBBBBBAAABBBBBBBBBA",
"AAAAAAAAAAAAAAAAAAAAABBBBBBBBBBBBBBBBBBBBBBBBBBBBBAAABBBBBBBBBBA",
"AAAAAAAAAAAAAAAAAAAABBBEEEEEEEEEEEEEEEEEEEEBBBBBBAAAABBBBBBBBBAA",
"AAAAAAAAAAAAAAAAAAABBBBBBBBBBBBBBBBBBBBBBBBBBBBBAAAAABBBBBBBBAAA",
"AAAAAAAAAAAAAAAAAAABBBBBBBBBBBBBBBBBBBBBBBBBBBBAAAAAABBBBBBBAAAA",
"AAAAAAAAAAAAAAAAAAAAAAAAAAAAAAAAAAAAAAAAAAAAAAAAAAAAAAAAAAAAAAAA",
"AAAAAAAAAAAAAAAAAAAAAAAAAAAAAAAAAAAAAAAAAAAAAAAAAAAAAAAAAAAAAAAA",
"AAAAAAAAAAAAAAAAAAAAAAAAAAAAAAAAAAAAAAAAAAAAAAAAAAAAAAAAAAAAAAAA",
"AAAAAAAAAAAAAAAAAAAAAAAAAAAAAAAAAAAAAAAAAAAAAAAAAAAAAAAAAAAAAAAA",
"AAAAAAAAADDDDAAADAAAAADAAADDDDAAADDDDDDDADDDDDDADAAAAAAADAAAAAAA",
"AAAAAAAADAAAADAAADAAADAAADAAAADAAAAADAAAADAAAAAADDAAAAADDAAAAAAA",
"AAAAAAAADAAAAAAAAADADAAAADAAAAAAAAAADAAAADAAAAAADDAAAAADDAAAAAAA",
"AAAAAAAADAAAAAAAAAADAAAAADAAAAAAAAAADAAAADAAAAAADADAAADADAAAAAAA",
"AAAAAAAAADDDDAAAAAADAAAAAADDDDAAAAAADAAAADDDDDDADADAAADADAAAAAAA",
"AAAAAAAAAAAAADAAAAADAAAAAAAAAADAAAAADAAAADAAAAAADAADADAADAAAAAAA",
"AAAAAAAAAAAAADAAAAADAAAAAAAAAADAAAAADAAAADAAAAAADAADADAADAAAAAAA",
"AAAAAAAADAAAADAAAAADAAAAADAAAADAAAAADAAAADAAAAAADAAADAAADAAAAAAA",
"AAAAAAAAADDDDAAAAAADAAAAAADDDDAAAAAADAAAADDDDDDADAAADAAADAAAAAAA",
"AAAAAAAAAAAAAAAAAAAAAAAAAAAAAAAAAAAAAAAAAAAAAAAAAAAAAAAAAAAAAAAA",
"AAAAAAAAAAAAAAAAAAAAAAAAAAAAAAAAAAAAAAAAAAAAAAAAAAAAAAAAAAAAAAAA",
"AAAAAAAAAAAAAAAAAAAAAAAAAAAAAAAAAAAAAAAAAAAAAAAAAAAAAAAAAAAAAAAA",
"AAAAAAAAAAAAAAAAAAAAAAAAAAAAAAAAAAAAAAAAAAAAAAAAAAAAAAAAAAAAAAAA",
"AAAAADDDAAAAADDDDAAAADAAAAADAAADDDDAAAAADDDDAAAADAAAAAADDDDDDAAA",
"AAAADAAADAAADAAAADAAADAAAAADAADAAAADAAADAAAADAAADAAAAAADAAAAAAAA",
"AAADAAAAAAADAAAAAADAADDAAAADAADAAAAAAADAAAAAADAADAAAAAADAAAAAAAA",
"AAADAAAAAAADAAAAAADAADADAAADAADAAAAAAADAAAAAADAADAAAAAADAAAAAAAA",
"AAADAAAAAAADAAAAAADAADAADAADAAADDDDAAADAAAAAADAADAAAAAADDDDDDAAA",
"AAADAAAAAAADAAAAAADAADAAADADAAAAAAADAADAAAAAADAADAAAAAADAAAAAAAA",
"AAADAAAAAAADAAAAAADAADAAAADDAAAAAAADAADAAAAAADAADAAAAAADAAAAAAAA",
"AAAADAAADAAADAAAADAAADAAAAADAADAAAADAAADAAAADAAADAAAAAADAAAAAAAA",
"AAAAADDDAAAAADDDDAAAADAAAAADAAADDDDAAAAADDDDAAAADDDDDDADDDDDDAAA",
"AAAAAAAAAAAAAAAAAAAAAAAAAAAAAAAAAAAAAAAAAAAAAAAAAAAAAAAAAAAAAAAA",
"AAAAAAAAAAAAAAAAAAAAAAAAAAAAAAAAAAAAAAAAAAAAAAAAAAAAAAAAAAAAAAAA",
};
